<svg xmlns="http://www.w3.org/2000/svg" version="1.1" xmlns:xlink="http://www.w3.org/1999/xlink" xmlns:svgjs="http://svgjs.dev/svgjs" width="1500" height="920" viewBox="0 0 1500 920"><g transform="matrix(1,0,0,1,-0.9090909090909918,0.767332110659936)"><svg viewBox="0 0 396 243" data-background-color="#ffffff" preserveAspectRatio="xMidYMid meet" height="920" width="1500" xmlns="http://www.w3.org/2000/svg" xmlns:xlink="http://www.w3.org/1999/xlink"><g id="tight-bounds" transform="matrix(1,0,0,1,0.2400000000000091,-0.20267576401126064)"><svg viewBox="0 0 395.52 243.40535152802252" height="243.40535152802252" width="395.52"><g><svg viewBox="0 0 395.52 243.40535152802252" height="243.40535152802252" width="395.52"><g><svg viewBox="0 0 395.52 243.40535152802252" height="243.40535152802252" width="395.52"><g><svg viewBox="0 0 395.52 243.40535152802252" height="243.40535152802252" width="395.52"><g transform="matrix(1,0,0,1,0,146.40514251377246)"><svg viewBox="0 0 395.52 97.00020901425006" height="97.00020901425006" width="395.52"><g id="textblocktransform"><svg viewBox="0 0 395.52 97.00020901425006" height="97.00020901425006" width="395.52" id="textblock"><g><svg viewBox="0 0 395.52 52.31727772445685" height="52.31727772445685" width="395.52"><g transform="matrix(1,0,0,1,0,0)"><svg width="395.52" viewBox="5.37 -37.01 279.79 37.01" height="52.31727772445685" data-palette-color="#0e5ddd"><path d="M5.37 0L5.37-37.01 11.23-37.01 11.23-18.63 16.09-18.63 22.39-37.01 28.59-37.01 21.63-18.63 22.88-18.63Q23.83-18.63 24.62-18.14 25.42-17.65 25.98-16.82 26.54-15.99 26.86-14.88 27.17-13.77 27.17-12.5L27.17-12.5 27.17-4.2 33.67-4.2Q33.57-3.32 33.19-2.56 32.81-1.81 32.24-1.23 31.67-0.66 30.93-0.33 30.2 0 29.39 0L29.39 0 25.95 0Q25 0 24.16-0.49 23.32-0.98 22.68-1.81 22.05-2.64 21.68-3.76 21.31-4.88 21.31-6.15L21.31-6.15 21.31-14.53 11.23-14.53 11.23 0 5.37 0ZM39.04-6.15L39.04-13.77 33.54-13.77Q33.62-14.58 33.96-15.3 34.3-16.02 34.85-16.54 35.4-17.07 36.09-17.38 36.79-17.7 37.57-17.7L37.57-17.7 39.04-17.7 39.04-30.81Q39.04-32.1 39.39-33.24 39.74-34.38 40.37-35.22 40.99-36.06 41.83-36.54 42.67-37.01 43.63-37.01L43.63-37.01 58.96-37.01 58.96-32.89 44.89-32.89 44.89-17.7 54.56-17.7 54.56-13.77 44.89-13.77 44.89-4.17 61.13-4.17Q61.03-3.32 60.65-2.55 60.28-1.78 59.7-1.22 59.13-0.66 58.4-0.33 57.66 0 56.86 0L56.86 0 43.67 0Q42.7 0 41.86-0.49 41.01-0.98 40.39-1.81 39.77-2.64 39.4-3.76 39.04-4.88 39.04-6.15L39.04-6.15ZM67.4 0L67.4-37.01 73.19-37.01 73.19-28.05 82.29-35.18Q82.73-35.55 83.17-35.88 83.61-36.21 84.09-36.46 84.57-36.72 85.09-36.87 85.62-37.01 86.23-37.01L86.23-37.01Q87.18-37.01 88.01-36.58 88.84-36.16 89.46-35.39 90.08-34.62 90.44-33.58 90.79-32.54 90.79-31.35L90.79-31.35 90.79-4.2 96.28-4.2Q96.19-3.32 95.81-2.56 95.43-1.81 94.86-1.23 94.28-0.66 93.55-0.33 92.82 0 92.01 0L92.01 0 89.37 0Q88.42 0 87.59-0.49 86.76-0.98 86.14-1.81 85.52-2.64 85.16-3.76 84.81-4.88 84.81-6.15L84.81-6.15 84.81-32.1 73.19-23.05 73.19 0 67.4 0ZM102.87 0L102.87-13.79 96.72-13.79Q96.79-14.67 97.16-15.43 97.53-16.19 98.1-16.75 98.67-17.31 99.42-17.64 100.16-17.97 100.99-17.97L100.99-17.97 102.87-17.97 102.87-37.01 120.01-37.01Q120.99-37.01 121.89-36.54 122.8-36.06 123.49-35.22 124.19-34.38 124.61-33.24 125.04-32.1 125.04-30.81L125.04-30.81 125.04-21.68Q125.04-19.9 124.24-18.41 123.43-16.92 121.89-16.02L121.89-16.02Q122.97-15.63 123.75-14.92 124.53-14.21 125.03-13.35 125.53-12.5 125.77-11.57 126.02-10.64 126.02-9.81L126.02-9.81 126.02-6.15Q126.02-4.88 125.65-3.76 125.29-2.64 124.64-1.81 123.99-0.98 123.15-0.49 122.31 0 121.35 0L121.35 0 102.87 0ZM108.66-17.97L119.26-17.97 119.26-32.84 108.66-32.84 108.66-17.97ZM108.66-4.17L120.18-4.17 120.18-13.79 108.66-13.79 108.66-4.17ZM135.95 0L135.95-13.77 130.51-13.77Q130.58-14.62 130.96-15.38 131.34-16.14 131.91-16.71 132.49-17.29 133.22-17.61 133.95-17.94 134.78-17.94L134.78-17.94 135.95-17.94 135.95-37.01 152.5-37.01Q153.48-37.01 154.38-36.54 155.29-36.06 155.98-35.22 156.68-34.38 157.09-33.24 157.51-32.1 157.51-30.81L157.51-30.81 157.51-21.7Q157.51-19.92 156.7-18.43 155.9-16.94 154.36-16.04L154.36-16.04Q155.43-15.65 156.22-14.94 157-14.23 157.51-13.38 158.02-12.52 158.27-11.6 158.51-10.67 158.51-9.84L158.51-9.84 158.49-4.2 164.91-4.2Q164.81-3.32 164.43-2.56 164.05-1.81 163.48-1.23 162.91-0.66 162.17-0.33 161.44 0 160.63 0L160.63 0 157.27 0Q156.31 0 155.47-0.49 154.63-0.98 153.99-1.81 153.36-2.64 152.99-3.76 152.63-4.88 152.63-6.15L152.63-6.15 152.63-13.77 141.74-13.77 141.71 0 135.95 0ZM141.74-17.94L151.72-17.94 151.72-32.84 141.74-32.84 141.74-17.94ZM168.01 0L169.59-9.3 163.95-9.3Q164.05-10.16 164.43-10.91 164.81-11.67 165.38-12.24 165.95-12.82 166.69-13.15 167.42-13.48 168.22-13.48L168.22-13.48 170.32-13.48 173.57-32.4Q173.74-33.4 174.22-34.25 174.69-35.11 175.34-35.72 175.99-36.33 176.77-36.67 177.55-37.01 178.33-37.01L178.33-37.01 184.26-37.01Q185.02-37.01 185.8-36.67 186.58-36.33 187.24-35.71 187.9-35.08 188.38-34.24 188.85-33.4 189.03-32.37L189.03-32.37 194.59 0 188.76 0 187.24-9.3 175.26-9.3 173.77 0 168.01 0ZM175.92-13.48L186.58-13.48 183.46-32.89 178.99-32.89Q178.21-28.15 177.45-23.28 176.7-18.41 175.92-13.48L175.92-13.48ZM204.23 0L204.23-4.17 211.97-4.17 211.97-32.89 203.92-32.89 203.92-24.46 198.89-24.46 198.89-30.81Q198.89-32.1 199.25-33.24 199.62-34.38 200.25-35.22 200.89-36.06 201.73-36.54 202.57-37.01 203.55-37.01L203.55-37.01 217.78-37.01 217.78-6.15Q217.78-4.88 217.42-3.76 217.05-2.64 216.42-1.81 215.78-0.98 214.94-0.49 214.1 0 213.14 0L213.14 0 204.23 0ZM228.72 0L228.72-37.01 234.5-37.01 234.5-28.05 243.61-35.18Q244.05-35.55 244.49-35.88 244.93-36.21 245.4-36.46 245.88-36.72 246.41-36.87 246.93-37.01 247.54-37.01L247.54-37.01Q248.49-37.01 249.32-36.58 250.15-36.16 250.78-35.39 251.4-34.62 251.75-33.58 252.11-32.54 252.11-31.35L252.11-31.35 252.11-4.2 257.6-4.2Q257.5-3.32 257.12-2.56 256.75-1.81 256.17-1.23 255.6-0.66 254.87-0.33 254.13 0 253.33 0L253.33 0 250.69 0Q249.74 0 248.91-0.49 248.08-0.98 247.46-1.81 246.83-2.64 246.48-3.76 246.13-4.88 246.13-6.15L246.13-6.15 246.13-32.1 234.5-23.05 234.5 0 228.72 0ZM265.29 0L265.29 0Q265.39-0.85 265.76-1.61 266.14-2.37 266.72-2.94 267.29-3.52 268.02-3.85 268.75-4.17 269.56-4.17L269.56-4.17 278.52-4.17 278.52-10.11 265.73-16.48Q264.26-17.21 263.38-18.7 262.5-20.19 262.5-22.41L262.5-22.41 262.5-30.81Q262.5-32.1 262.86-33.24 263.21-34.38 263.83-35.22 264.46-36.06 265.29-36.54 266.12-37.01 267.07-37.01L267.07-37.01 280.57-37.01Q281.52-37.01 282.35-36.54 283.18-36.06 283.81-35.22 284.43-34.38 284.79-33.24 285.16-32.1 285.16-30.81L285.16-30.81 285.16-23.58 279.33-23.58 279.33-32.84 268.34-32.84 268.34-21.26 281.57-14.5Q282.21-14.18 282.72-13.62 283.23-13.06 283.6-12.32 283.96-11.57 284.16-10.67 284.36-9.77 284.36-8.79L284.36-8.79 284.36-6.15Q284.36-4.88 283.99-3.76 283.62-2.64 283-1.81 282.38-0.98 281.55-0.49 280.72 0 279.77 0L279.77 0 265.29 0Z" opacity="1" transform="matrix(1,0,0,1,0,0)" fill="#0e5ddd" class="wordmark-text-0" data-fill-palette-color="primary" id="text-0"></path></svg></g></svg></g><g transform="matrix(1,0,0,1,0,64.66813138053573)"><svg viewBox="0 0 395.52 32.332077633714334" height="32.332077633714334" width="395.52"><g transform="matrix(1,0,0,1,0,0)"><svg width="395.52" viewBox="0.35 -37.6 618.99 50.6" height="32.332077633714334" data-palette-color="#0e5ddd"><path d="M13.4 0L9.6 0 9.6-30.1 0.35-30.1 0.35-32.5 22.7-32.5 22.7-30.1 13.4-30.1 13.4 0ZM35.87 0.5Q30.87 0.5 28.02-2.63 25.17-5.75 25.17-12L25.17-12Q25.17-18.3 27.92-21.9 30.67-25.5 35.42-25.5L35.42-25.5Q39.72-25.5 42.04-22.53 44.37-19.55 44.37-14.1L44.37-14.1Q44.37-13.15 44.27-12.55 44.17-11.95 44.12-11.8L44.12-11.8 28.97-11.8Q28.97-1.7 36.27-1.7L36.27-1.7Q38.27-1.7 39.69-2.43 41.12-3.15 41.92-3.98 42.72-4.8 42.72-4.95L42.72-4.95 44.17-3.75Q44.17-3.55 43.22-2.48 42.27-1.4 40.42-0.45 38.57 0.5 35.87 0.5L35.87 0.5ZM29.02-13.9L40.97-13.9 41.02-14.85Q41.02-23.35 35.42-23.35L35.42-23.35Q32.47-23.35 30.87-21.03 29.27-18.7 29.02-13.9L29.02-13.9ZM61.39 0.5Q56.19 0.5 53.39-2.7 50.59-5.9 50.59-12.25L50.59-12.25Q50.59-18.65 53.36-22.08 56.14-25.5 61.49-25.5L61.49-25.5Q63.24-25.5 64.79-25.03 66.34-24.55 67.41-23.98 68.49-23.4 68.49-23.35L68.49-23.35 68.04-21.3Q67.84-21.45 66.96-21.93 66.09-22.4 64.71-22.85 63.34-23.3 61.89-23.3L61.89-23.3Q58.04-23.3 56.24-20.75 54.44-18.2 54.44-12.3L54.44-12.3Q54.44-6.6 56.34-4.15 58.24-1.7 61.69-1.7L61.69-1.7Q63.64-1.7 65.01-2.4 66.39-3.1 67.14-3.88 67.89-4.65 67.89-4.8L67.89-4.8 69.49-3.75Q69.49-3.55 68.59-2.48 67.69-1.4 65.89-0.45 64.09 0.5 61.39 0.5L61.39 0.5ZM76.36 0L76.36-37.4 80.01-37.6 80.01-22.75 80.06-22.75Q80.06-22.75 80.68-23.43 81.31-24.1 83.16-24.8 85.01-25.5 87.21-25.5L87.21-25.5Q90.86-25.5 92.83-23.48 94.81-21.45 94.81-17.45L94.81-17.45 94.81 0 91.21 0 91.21-17Q91.21-22.85 86.01-22.85L86.01-22.85Q84.21-22.85 82.86-22.3 81.51-21.75 80.76-21.1 80.01-20.45 80.01-20.35L80.01-20.35 80.01 0 76.36 0ZM104.78 0L104.78-25 107.78-25 108.23-22.6Q109.03-23.55 110.73-24.53 112.43-25.5 115.63-25.5L115.63-25.5Q119.23-25.5 121.23-23.48 123.23-21.45 123.23-17.45L123.23-17.45 123.23 0 119.58 0 119.58-16.7Q119.58-19.9 118.28-21.38 116.98-22.85 114.43-22.85L114.43-22.85Q112.63-22.85 111.28-22.3 109.93-21.75 109.15-21.1 108.38-20.45 108.38-20.35L108.38-20.35 108.38 0 104.78 0ZM141.89 0.5Q136.69 0.5 133.97-2.9 131.24-6.3 131.24-12.5L131.24-12.5Q131.24-18.7 133.97-22.1 136.69-25.5 141.89-25.5L141.89-25.5Q147.09-25.5 149.82-22.1 152.54-18.7 152.54-12.5L152.54-12.5Q152.54-6.35 149.77-2.93 146.99 0.5 141.89 0.5L141.89 0.5ZM141.89-1.7Q145.39-1.7 147.04-4.38 148.69-7.05 148.69-12.5L148.69-12.5Q148.69-17.9 147.04-20.6 145.39-23.3 141.89-23.3L141.89-23.3Q138.39-23.3 136.74-20.63 135.09-17.95 135.09-12.5L135.09-12.5Q135.09-7.05 136.74-4.38 138.39-1.7 141.89-1.7L141.89-1.7ZM164.56 0L160.96 0 160.96-37.4 164.56-37.6 164.56 0ZM183.63 0.5Q178.43 0.5 175.71-2.9 172.98-6.3 172.98-12.5L172.98-12.5Q172.98-18.7 175.71-22.1 178.43-25.5 183.63-25.5L183.63-25.5Q188.83-25.5 191.56-22.1 194.28-18.7 194.28-12.5L194.28-12.5Q194.28-6.35 191.51-2.93 188.73 0.5 183.63 0.5L183.63 0.5ZM183.63-1.7Q187.13-1.7 188.78-4.38 190.43-7.05 190.43-12.5L190.43-12.5Q190.43-17.9 188.78-20.6 187.13-23.3 183.63-23.3L183.63-23.3Q180.13-23.3 178.48-20.63 176.83-17.95 176.83-12.5L176.83-12.5Q176.83-7.05 178.48-4.38 180.13-1.7 183.63-1.7L183.63-1.7ZM210.75 13Q205.45 13 202.7 10.93 199.95 8.85 199.95 4.85L199.95 4.85Q199.95 2.25 201.13 0.65 202.3-0.95 204.1-1.7L204.1-1.7Q203.2-2.75 203.2-4.65L203.2-4.65Q203.2-7.1 205.5-8.85L205.5-8.85Q203.5-9.9 202.4-11.88 201.3-13.85 201.3-16.65L201.3-16.65Q201.3-21.2 203.88-23.35 206.45-25.5 210.5-25.5L210.5-25.5Q212.45-25.5 213.95-25L213.95-25 220.4-24.95 220.4-23 217.2-22.9Q219.2-20.65 219.2-16.65L219.2-16.65Q219.2-12.35 216.88-10.05 214.55-7.75 210.45-7.75L210.45-7.75Q208.75-7.75 207.4-8.1L207.4-8.1Q205.65-6.95 205.65-5.5L205.65-5.5Q205.65-4.15 206.75-3.63 207.85-3.1 210.3-3.1L210.3-3.1Q221.25-3.1 221.25 4.6L221.25 4.6Q221.25 8.7 218.53 10.85 215.8 13 210.75 13L210.75 13ZM210.35-9.75Q215.65-9.75 215.65-16.7L215.65-16.7Q215.65-20.3 214.25-21.83 212.85-23.35 210.3-23.35L210.3-23.35Q207.75-23.35 206.28-21.85 204.8-20.35 204.8-16.65L204.8-16.65Q204.8-13.25 206.25-11.5 207.7-9.75 210.35-9.75L210.35-9.75ZM210.75 10.75Q214.25 10.75 216.15 9.33 218.05 7.9 218.05 5.2L218.05 5.2Q218.05-0.05 209.9-0.05L209.9-0.05Q207.55-0.05 206.15-0.45L206.15-0.45Q204.65 0.15 203.73 1.48 202.8 2.8 202.8 4.8L202.8 4.8Q202.8 7.8 204.88 9.28 206.95 10.75 210.75 10.75L210.75 10.75ZM228.07 13Q227.17 13 226.52 12.85 225.87 12.7 225.52 12.55 225.17 12.4 225.07 12.35L225.07 12.35 225.47 10.05Q225.62 10.15 226.22 10.33 226.82 10.5 227.52 10.5L227.52 10.5Q229.82 10.5 231.37 8.03 232.92 5.55 234.82 0.3L234.82 0.3 225.02-25 229.32-25 236.72-4.1 243.42-25 246.07-25 237.42 0.4Q235.27 6.55 233.2 9.78 231.12 13 228.07 13L228.07 13ZM272.81 0.5Q269.51 0.5 267.51-1.13 265.51-2.75 265.51-5.65L265.51-5.65Q265.51-13 279.66-14.5L279.66-14.5 279.66-17.15Q279.66-20.7 278.51-22 277.36-23.3 274.46-23.3L274.46-23.3Q273.16-23.3 271.81-22.83 270.46-22.35 269.53-21.83 268.61-21.3 268.36-21.15L268.36-21.15 267.96-23.2Q268.21-23.4 269.23-23.95 270.26-24.5 271.83-25 273.41-25.5 275.01-25.5L275.01-25.5Q279.31-25.5 281.31-23.7 283.31-21.9 283.31-17.35L283.31-17.35 283.31-5.1Q283.31-3.1 283.68-2.4 284.06-1.7 284.61-1.7L284.61-1.7Q285.06-1.7 285.71-1.88 286.36-2.05 286.56-2.15L286.56-2.15 286.71-0.45Q286.31-0.3 285.01 0.1 283.71 0.5 282.81 0.5L282.81 0.5Q281.51 0.5 280.81-0.33 280.11-1.15 279.96-3.25L279.96-3.25 279.91-3.25Q279.91-3.05 279.11-2.1 278.31-1.15 276.73-0.33 275.16 0.5 272.81 0.5L272.81 0.5ZM273.91-1.7Q275.71-1.7 277.01-2.5 278.31-3.3 278.98-4.25 279.66-5.2 279.66-5.35L279.66-5.35 279.66-12.65Q275.11-12.15 272.18-10.7 269.26-9.25 269.26-6.1L269.26-6.1Q269.26-3.95 270.51-2.83 271.76-1.7 273.91-1.7L273.91-1.7ZM294.28 0L294.28-25 297.28-25 297.73-22.6Q298.53-23.55 300.23-24.53 301.93-25.5 305.13-25.5L305.13-25.5Q308.73-25.5 310.73-23.48 312.73-21.45 312.73-17.45L312.73-17.45 312.73 0 309.08 0 309.08-16.7Q309.08-19.9 307.78-21.38 306.48-22.85 303.93-22.85L303.93-22.85Q302.13-22.85 300.78-22.3 299.43-21.75 298.65-21.1 297.88-20.45 297.88-20.35L297.88-20.35 297.88 0 294.28 0ZM330.8 0.5Q326.25 0.5 323.5-2.75 320.75-6 320.75-11.8L320.75-11.8Q320.75-18.05 323.42-21.78 326.1-25.5 330.95-25.5L330.95-25.5Q333-25.5 334.4-24.98 335.8-24.45 336.55-23.83 337.3-23.2 337.3-23.1L337.3-23.1 337.35-23.1 337.35-37.4 340.95-37.6 340.95 0 337.85 0 337.45-2.95Q336.9-1.85 335.3-0.68 333.7 0.5 330.8 0.5L330.8 0.5ZM331.6-1.95Q333.4-1.95 334.7-2.73 336-3.5 336.67-4.4 337.35-5.3 337.35-5.45L337.35-5.45 337.35-20.8Q337.35-20.9 336.67-21.5 336-22.1 334.82-22.6 333.65-23.1 332.05-23.1L332.05-23.1Q328.2-23.1 326.4-20.28 324.6-17.45 324.6-11.9L324.6-11.9Q324.6-6.65 326.37-4.3 328.15-1.95 331.6-1.95L331.6-1.95ZM370.38 0L366.58 0 366.58-32.5 370.38-32.5 370.38 0ZM391.3 0L387.5 0 387.5-30.1 378.25-30.1 378.25-32.5 400.6-32.5 400.6-30.1 391.3-30.1 391.3 0ZM428.09 0.5Q425.44 0.5 423.62-0.33 421.79-1.15 420.87-2.1 419.94-3.05 419.94-3.2L419.94-3.2 421.19-4.95Q421.19-4.85 421.99-4 422.79-3.15 424.19-2.43 425.59-1.7 427.49-1.7L427.49-1.7Q430.29-1.7 431.72-3.1 433.14-4.5 433.14-6.5L433.14-6.5Q433.14-7.95 432.42-8.9 431.69-9.85 430.62-10.38 429.54-10.9 427.64-11.55L427.64-11.55Q425.44-12.35 424.14-13.03 422.84-13.7 421.92-15.05 420.99-16.4 420.99-18.55L420.99-18.55Q420.99-21.75 423.32-23.63 425.64-25.5 429.29-25.5L429.29-25.5Q430.89-25.5 432.37-25.08 433.84-24.65 434.74-24.18 435.64-23.7 435.89-23.55L435.89-23.55 435.29-21.4Q435.09-21.55 434.29-22.03 433.49-22.5 432.22-22.95 430.94-23.4 429.59-23.4L429.59-23.4Q427.29-23.4 425.87-22.25 424.44-21.1 424.44-19.35L424.44-19.35Q424.44-17.9 425.19-16.93 425.94-15.95 427.07-15.4 428.19-14.85 430.09-14.15L430.09-14.15Q432.29-13.4 433.67-12.68 435.04-11.95 435.99-10.6 436.94-9.25 436.94-7.1L436.94-7.1Q436.94-3.85 434.69-1.68 432.44 0.5 428.09 0.5L428.09 0.5ZM453.81 0.5Q448.61 0.5 445.88-2.9 443.16-6.3 443.16-12.5L443.16-12.5Q443.16-18.7 445.88-22.1 448.61-25.5 453.81-25.5L453.81-25.5Q459.01-25.5 461.73-22.1 464.46-18.7 464.46-12.5L464.46-12.5Q464.46-6.35 461.68-2.93 458.91 0.5 453.81 0.5L453.81 0.5ZM453.81-1.7Q457.31-1.7 458.96-4.38 460.61-7.05 460.61-12.5L460.61-12.5Q460.61-17.9 458.96-20.6 457.31-23.3 453.81-23.3L453.81-23.3Q450.31-23.3 448.66-20.63 447.01-17.95 447.01-12.5L447.01-12.5Q447.01-7.05 448.66-4.38 450.31-1.7 453.81-1.7L453.81-1.7ZM476.48 0L472.88 0 472.88-37.4 476.48-37.6 476.48 0ZM494.1 0.5Q490.45 0.5 488.45-1.53 486.45-3.55 486.45-7.55L486.45-7.55 486.45-25 490.1-25 490.1-8.3Q490.1-2.15 495.3-2.15L495.3-2.15Q497.1-2.15 498.4-2.73 499.7-3.3 500.47-3.95 501.25-4.6 501.25-4.7L501.25-4.7 501.25-25 504.9-25 504.9 0 501.85 0 501.35-2.4Q500.7-1.5 498.95-0.5 497.2 0.5 494.1 0.5L494.1 0.5ZM521.32 0.5Q518.62 0.5 517.32-1.18 516.02-2.85 516.02-6.7L516.02-6.7 516.02-22.55 513.42-22.55 513.42-24.65 516.02-24.95 517.37-32.9 519.67-32.9 519.67-25 526.07-25 526.07-22.55 519.67-22.55 519.67-7.6Q519.67-4.35 520.29-3.13 520.92-1.9 522.47-1.9L522.47-1.9Q523.72-1.9 524.72-2.15 525.72-2.4 525.72-2.45L525.72-2.45 525.97-0.45Q525.87-0.35 525.34-0.13 524.82 0.1 523.79 0.3 522.77 0.5 521.32 0.5L521.32 0.5ZM536.04-30.05Q535.14-30.05 534.59-30.6L534.59-30.6Q533.94-31.25 533.94-32.2L533.94-32.2Q533.94-33.15 534.59-33.8L534.59-33.8Q535.14-34.35 536.04-34.35L536.04-34.35Q536.99-34.35 537.54-33.85L537.54-33.85Q538.14-33.2 538.14-32.2L538.14-32.2Q538.14-31.3 537.54-30.6L537.54-30.6Q536.84-30.05 536.04-30.05L536.04-30.05ZM537.84 0L534.19 0 534.19-25 537.84-25 537.84 0ZM556.85 0.5Q551.65 0.5 548.93-2.9 546.2-6.3 546.2-12.5L546.2-12.5Q546.2-18.7 548.93-22.1 551.65-25.5 556.85-25.5L556.85-25.5Q562.05-25.5 564.78-22.1 567.5-18.7 567.5-12.5L567.5-12.5Q567.5-6.35 564.73-2.93 561.95 0.5 556.85 0.5L556.85 0.5ZM556.85-1.7Q560.35-1.7 562-4.38 563.65-7.05 563.65-12.5L563.65-12.5Q563.65-17.9 562-20.6 560.35-23.3 556.85-23.3L556.85-23.3Q553.35-23.3 551.7-20.63 550.05-17.95 550.05-12.5L550.05-12.5Q550.05-7.05 551.7-4.38 553.35-1.7 556.85-1.7L556.85-1.7ZM575.92 0L575.92-25 578.92-25 579.37-22.6Q580.17-23.55 581.87-24.53 583.57-25.5 586.77-25.5L586.77-25.5Q590.37-25.5 592.37-23.48 594.37-21.45 594.37-17.45L594.37-17.45 594.37 0 590.72 0 590.72-16.7Q590.72-19.9 589.42-21.38 588.12-22.85 585.57-22.85L585.57-22.85Q583.77-22.85 582.42-22.3 581.07-21.75 580.3-21.1 579.52-20.45 579.52-20.35L579.52-20.35 579.52 0 575.92 0ZM610.49 0.5Q607.84 0.5 606.02-0.33 604.19-1.15 603.27-2.1 602.34-3.05 602.34-3.2L602.34-3.2 603.59-4.95Q603.59-4.85 604.39-4 605.19-3.15 606.59-2.43 607.99-1.7 609.89-1.7L609.89-1.7Q612.69-1.7 614.12-3.1 615.54-4.5 615.54-6.5L615.54-6.5Q615.54-7.95 614.82-8.9 614.09-9.85 613.02-10.38 611.94-10.9 610.04-11.55L610.04-11.55Q607.84-12.35 606.54-13.03 605.24-13.7 604.32-15.05 603.39-16.4 603.39-18.55L603.39-18.55Q603.39-21.75 605.72-23.63 608.04-25.5 611.69-25.5L611.69-25.5Q613.29-25.5 614.77-25.08 616.24-24.65 617.14-24.18 618.04-23.7 618.29-23.55L618.29-23.55 617.69-21.4Q617.49-21.55 616.69-22.03 615.89-22.5 614.62-22.95 613.34-23.4 611.99-23.4L611.99-23.4Q609.69-23.4 608.27-22.25 606.84-21.1 606.84-19.35L606.84-19.35Q606.84-17.9 607.59-16.93 608.34-15.95 609.47-15.4 610.59-14.85 612.49-14.15L612.49-14.15Q614.69-13.4 616.07-12.68 617.44-11.95 618.39-10.6 619.34-9.25 619.34-7.1L619.34-7.1Q619.34-3.85 617.09-1.68 614.84 0.5 610.49 0.5L610.49 0.5Z" opacity="1" transform="matrix(1,0,0,1,0,0)" fill="#0e5ddd" class="slogan-text-1" data-fill-palette-color="secondary" id="text-1"></path></svg></g></svg></g></svg></g></svg></g><g transform="matrix(1,0,0,1,134.31719484542307,0)"><svg viewBox="0 0 126.88561030915383 134.0542888576936" height="134.0542888576936" width="126.88561030915383"><g><svg xmlns="http://www.w3.org/2000/svg" xml:space="preserve" viewBox="5.700000000000001 3.2 88.50000000000001 93.50000000000001" x="0" y="0" height="134.0542888576936" width="126.88561030915383" class="icon-icon-0" data-fill-palette-color="accent" id="icon-0"><path d="M83.5 3.2H16.3c-6 0-10.6 4.5-10.6 10.4v55.7c0 1.1 0.2 2.2 0.5 3.2 1.3 4.4 5.2 7.3 9.8 7.3h7.8c1.4 3.1 3.4 6 5.9 8.5 5.4 5.4 12.6 8.4 20.3 8.4s14.9-3 20.3-8.4c2.5-2.5 4.5-5.4 5.9-8.5h7.2c1.7 0 3.4-0.2 4.9-1 3.9-2 5.9-5.2 5.9-9.6V13.9c0-6.2-4.4-10.7-10.7-10.7m-1 5.4c1.9 0 3.4 1.5 3.4 3.4s-1.5 3.4-3.4 3.4-3.4-1.5-3.4-3.4 1.5-3.4 3.4-3.4m-11.8 0c1.9 0 3.4 1.5 3.4 3.4s-1.5 3.4-3.4 3.4-3.4-1.5-3.4-3.4 1.6-3.4 3.4-3.4M59 8.6c1.9 0 3.4 1.5 3.4 3.4s-1.5 3.4-3.4 3.4-3.4-1.5-3.4-3.4 1.5-3.4 3.4-3.4M27 68.1c0-2 0.3-4.1 0.8-6h8.4c-0.3 2.1-0.4 4.2-0.4 6.3q0 2.85 0.3 5.7h-8.3c-0.5-2-0.8-4-0.8-6m14.5 0.3c0-2.1 0.2-4.2 0.5-6.3h16c0.3 1.9 0.4 3.8 0.4 5.7 0 2.1-0.2 4.2-0.5 6.3H41.8c-0.2-1.9-0.3-3.9-0.3-5.7m1.7-12.1c1.2-4 2.9-7.7 5.2-11.2q1.65-0.15 3.3 0c2.2 3.5 3.9 7.2 5 11.2z m16.2-9.2c4.3 1.9 8 5.2 10.4 9.3h-7.1q-1.2-4.95-3.3-9.3M63.7 62h8.5c0.5 2 0.8 4 0.8 6s-0.3 4-0.8 6h-8.5c0.3-2.1 0.4-4.2 0.4-6.3 0-1.9-0.1-3.8-0.4-5.7m-26.4-5.7h-7.1c2.5-4.1 6.2-7.4 10.6-9.3-1.5 3-2.7 6.1-3.5 9.3m-7 23.5h6.9c0.8 3.2 1.9 6.2 3.3 9.1-4.3-1.9-7.9-5.1-10.2-9.1M48.1 91c-2.2-3.5-3.9-7.2-5-11.1h13.6c-1.2 4-2.9 7.7-5.2 11.2-1.3 0-2.3 0-3.4-0.1M59 89.2c1.5-3 2.7-6.1 3.5-9.4h7.2c-2.5 4.2-6.2 7.5-10.7 9.4m29.4-67.3v47.4c0 2.9-1.9 4.8-4.8 4.8h-5.5q0.6-2.85 0.6-6c0-7.7-3-14.9-8.4-20.3S57.7 39.4 50 39.4s-14.9 3-20.3 8.4-8.4 12.6-8.4 20.3q0 3 0.6 6h-5.5c-3 0-4.8-1.8-4.8-4.8V20.9h76.7c0.1 0.3 0.1 0.7 0.1 1" fill="#f98f7c" data-fill-palette-color="accent"></path></svg></g></svg></g><g></g></svg></g></svg></g></svg></g><defs></defs></svg><rect width="395.52" height="243.40535152802252" fill="none" stroke="none" visibility="hidden"></rect></g></svg></g></svg>